<?xml version="1.0" encoding="utf-8"?>
<!-- Generator: Adobe Illustrator 21.1.0, SVG Export Plug-In . SVG Version: 6.00 Build 0)  -->
<svg version="1.1" id="Layer_1" xmlns="http://www.w3.org/2000/svg" xmlns:xlink="http://www.w3.org/1999/xlink" x="0px" y="0px"
	 viewBox="0 0 268.8 76.6" style="enable-background:new 0 0 268.8 76.6;" xml:space="preserve">
<style type="text/css">
	.st0{fill:none;stroke:#A91E22;stroke-width:0.5669;stroke-miterlimit:10;}
	.st1{fill:#E7DCD2;}
</style>
<path class="st0" d="M252.3,38"/>
<g>
	<path class="st1" d="M23.4,47.6l1.4-7.2h2.8l1.8,7.2h11.4l-2.1-7.2h11.9l6-29.4l-36.5,0l-7.3,36.6H23.4z M29.1,19.4h15.3l-2.5,12.4
		H26.6L29.1,19.4z"/>
	<polygon class="st1" points="30.5,51.6 34.1,65.6 46.3,65.6 42.1,51.6 	"/>
	<polygon class="st1" points="12,51.6 9.2,65.6 19.8,65.6 22.6,51.6 	"/>
</g>
<g>
	<polygon class="st1" points="65.5,47.6 67.1,40.3 84.4,40.3 86.1,31.8 68.8,31.8 71,19.4 91.3,19.4 93,10.9 62.1,10.9 54.8,47.6 	
		"/>
	<polygon class="st1" points="64.7,51.6 54,51.6 51.2,65.6 82.2,65.6 83.8,57 63.5,57 	"/>
</g>
<g>
	<polygon class="st1" points="111.2,47.6 122.1,47.6 125.2,31.8 103.7,31.8 106.2,19.4 127.8,19.4 129.5,10.9 97,10.9 91.1,40.2 
		112.7,40.3 	"/>
	<polygon class="st1" points="110.4,51.6 109.4,57.1 87.8,57.1 86.1,65.6 118.5,65.6 121.3,51.6 	"/>
</g>
<g>
	<polygon class="st1" points="177.8,47.6 185.2,10.9 174.6,10.9 167.3,47.6 	"/>
	<polygon class="st1" points="166.5,51.6 163.7,65.6 174.2,65.6 177,51.6 	"/>
</g>
<g>
	<polygon class="st1" points="126.4,51.6 123.6,65.6 134.2,65.6 137,51.6 	"/>
	<polygon class="st1" points="137.8,47.6 138.7,43 141.9,43 143,47.6 154.3,47.6 151.4,38 170.1,10.9 156.2,10.9 144,33.2 
		140.7,33.2 145.2,10.9 134.6,10.9 127.2,47.6 	"/>
	<polygon class="st1" points="144,51.6 147.4,65.6 159.6,65.6 155.5,51.6 	"/>
</g>
<g>
	<polygon class="st1" points="194,47.6 204.5,47.6 210.1,19.4 221.7,19.4 223.4,10.9 189.8,10.9 188.2,19.4 199.6,19.4 	"/>
	<polygon class="st1" points="193.1,51.6 190.4,65.6 200.9,65.6 203.7,51.6 	"/>
</g>
<g>
	<polygon class="st1" points="241.4,47.6 252.2,47.6 255.4,31.8 233.8,31.8 236.3,19.4 257.9,19.4 259.6,10.9 227.1,10.9 
		221.2,40.2 242.8,40.3 	"/>
	<polygon class="st1" points="240.6,51.6 239.5,57.1 217.9,57.1 216.2,65.6 248.7,65.6 251.4,51.6 	"/>
</g>
</svg>
